<svg width="239" height="72" xmlns="http://www.w3.org/2000/svg"><g fill-rule="nonzero" fill="none"><g><path d="M65.56 53.925h-4.582c-.244 0-.458-.206-.458-.441 0-.235.214-.44.458-.44h4.583c.244 0 .458.205.458.44 0 .235-.214.44-.458.44zM62.2 1.028h-3.36c-.245 0-.459-.205-.459-.44 0-.235.214-.441.459-.441h3.36c.244 0 .458.206.458.44 0 .236-.214.441-.458.441zm3.971 0h-1.527c-.244 0-.458-.205-.458-.44 0-.235.214-.441.458-.441h1.527c.245 0 .459.206.459.44 0 .236-.214.441-.459.441z" fill="#DDEBF7"/><path fill="#9C452D" d="M10.295 31.885l-.794 1.175h4.583v-1.175z"/><path d="M37.73 35.822c-.215-1.058-.031-2.204.61-3.114L57.77 4.76l-.183-.353-1.436-2.586c-.305-.558-1.1-.617-1.466-.118L33.177 32.678c-.64.91-.824 2.057-.61 3.115.213 1.058.824 2.057 1.771 2.645.092.058.215.117.306.176.03 0 .061.03.092.03.091.058.213.088.305.147.122.058.244.088.336.117.03 0 .06 0 .06.03.123.03.245.058.337.088.122.03.245.03.367.058h.06c.254.03.51.03.765 0h.03c.122 0 .244-.029.367-.058a4.637 4.637 0 0 1-.672-.324c.427.206.916.236 1.374.089l.092-.03c.214-.059.397-.147.58-.235l.49-.294c-.764-.558-1.284-1.47-1.498-2.41z" fill="#544463"/><path d="M57.77 4.731L38.34 32.678c-.641.91-.824 2.057-.61 3.115.187.973.729 1.849 1.527 2.468l10.662-6.318c9.654-5.7 13.045-17.573 7.851-27.212z" fill="#230545"/><path d="M62.353 32.472L48.972 45.344c-.03.03-.061.03-.061.059-2.628 2.615-6.233 4.055-9.96 4.349.428.03.856.058 1.284.058h2.871c4.216 0 8.371-1.469 11.304-4.407.03-.03.06-.03.06-.06l13.382-12.87h-5.5z" fill="#CDD6C5"/><path d="M15.917 29.27v8.757c0 .793.519 1.528 1.344 1.704a1.802 1.802 0 0 0 2.138-1.117s1.955-5.554 2.964-8.463l-6.447-.882z" fill="#230545"/><path d="M32.414 36.587h.06-.06z" fill="#A09AA6"/><path d="M27.678 27.624l-.152-.147-1.497 1.44c.702 1.263.702 2.85-.948 4.437l-1.68 1.616c-1.435 1.382-1.435 3.614 0 5.025l5.652 5.437v-5.583c0-.735.122-1.44.336-2.116l1.192.646c.092-.117.519-3.438.61-3.526l3.3-3.174a17.515 17.515 0 0 1-6.813-4.055z" fill="#230545"/><path d="M25.081 33.354c2.292-2.204 1.345-4.437-.122-5.73l-1.527-1.47c-.916-.823-2.23-1.116-3.452-.91a9.2 9.2 0 0 0-2.505.792 9.3 9.3 0 0 0-2.292 1.588l-1.069 1.028v4.409h.458c1.436 0 1.925.235 3.208 1.469l5.04 4.849 2.261-6.025z" fill="#97A090"/><path d="M18.055 28.064h-.61c-1.192 0-2.14.912-2.14 2.058s.948 2.056 2.14 2.056h.61c1.191 0 2.139-.91 2.139-2.056s-.978-2.058-2.139-2.058z" fill="#E5E8DF"/><path d="M23.249 39.819c-.153 0-.337 0-.489-.059-.794-.21-1.345-.908-1.344-1.704v-8.757c0-1.616-1.375-2.939-3.055-2.939h-.917l-2.75-1.792c0-1.499 1.192-2.792 2.75-2.91.122 0 .275-.029.397-.029h6.935c2.352 0 4.277 1.851 4.277 4.114v.882c0 1.205-.214 2.439-.61 3.585a1271.188 1271.188 0 0 1-2.965 8.463 1.798 1.798 0 0 1-1.618 1.176h-.611v-.03z" fill="#9C452D"/><path d="M18.971 23.098c.123 0 .275-.03.398-.03h6.935c.794 0 1.527.206 2.169.559-.774-1.262-2.18-2.033-3.697-2.028h-6.935c-.122 0-.244 0-.397.03-1.558.117-2.75 1.41-2.75 2.909l1.559 1.028c.213-1.322 1.313-2.35 2.718-2.468z" fill="#B37624"/><path d="M30.153 29.592c-.061.206-.122.382-.183.588-.03.06-.03.088-.061.147-.55 1.558.305 3.291 1.955 3.82h.03l2.597-2.497c-1.528-.5-2.994-1.176-4.338-2.058z" fill="#544463"/><path d="M15.214 34.97a1.446 1.446 0 0 0-.306-.558l-8.034-7.73a1.39 1.39 0 0 0-.794-.352c-.347-.031-.688.1-.917.353L.367 31.297c-.234.22-.367.522-.367.838 0 .315.133.617.367.837l8.035 7.729c.23.225.543.352.87.352.328 0 .641-.127.871-.352l4.796-4.614c.275-.294.367-.735.275-1.117z" fill="#F1A031"/><path d="M15.214 34.97a1.446 1.446 0 0 0-.306-.558l-8.034-7.73a1.39 1.39 0 0 0-.794-.352l1.008 7.876 8.126.764z" fill="#FFC680"/><ellipse fill="#230545" cx="17.139" cy="30.122" rx="1" ry="1"/><path d="M38.921 49.752c3.758-.294 7.362-1.734 9.96-4.35.03-.029.06-.029.06-.058l11.7-11.255-10.692 1.763-1.985 2.498H31.803l-2.75 2.644v4.409c2.658 2.527 6.17 4.055 9.868 4.349z" fill="#CDD6C5"/><path d="M41.059 47.695c3.758-.294 7.363-1.734 9.96-4.35.03-.03.06-.03.06-.058l6.66-6.407c1.559-1.498.184-4.055-1.985-3.702l-3.666.617-1.986 2.498h-16.16l-2.75 2.645v4.407c2.657 2.528 6.17 4.056 9.868 4.35h-.001z" fill="#E5E8DF"/><path d="M29.664 24.832c0-.5-.397-.882-.916-.882h-12.22v2.351h12.22c.519 0 .916-.382.916-.881v-.588z" fill="#230545"/><path d="M24.776 31.885c-1.191 0-2.139-.911-2.139-2.058 0-1.146.948-2.056 2.139-2.056 1.161 0 2.138.91 2.138 2.056s-.977 2.058-2.138 2.058z" fill="#B37624"/><path d="M24.776 31.003c-.672 0-1.218-.525-1.222-1.176.013-.643.557-1.159 1.222-1.159.666 0 1.209.516 1.222 1.16-.004.65-.55 1.175-1.222 1.175z" fill="#230545"/><path d="M12.312 29.328c-.305.234-.581.5-.825.793-.061.089-.122.148-.183.235l-1.039 1.529h3.788V28.68c-.61.03-1.222.265-1.741.647z" fill="#DE5833"/><path fill="#7F8C76" d="M58.076 32.472v3.82l.06.06 8.34-2.851 1.07-1.029z"/><path d="M58.381 36.293v-3.82h-18.33s-3.36-.295-3.88-.383a15.582 15.582 0 0 1-1.68-.44 2.74 2.74 0 0 0-.458-.147l-3.3 3.173c-1.374 1.323-1.985 3.116-1.985 4.996v5.29l.305.44a15.596 15.596 0 0 0 2.75 2.087V41.229c0-1.616 1.435-2.88 3.085-2.88h13.076c3.028 0 6.033-.497 8.89-1.469l1.558-.528-.03-.06z" fill="#97A090"/><path d="M40.235 32.472a4.495 4.495 0 0 0-.49 1.999 4.4 4.4 0 0 0 1.497 3.32 2.385 2.385 0 0 0 1.834.53l.122-.03c.257-.035.512-.084.764-.147l15.06-4.937c.703-.235 1.375-.47 2.048-.764H40.235v.03z" fill="#7F8C76"/><path d="M43.106 33.06c1.406 0 3.177 1.234 3.788 2.616l6.721 15.575c.214.5.245.97.061 1.204-.183.236-.58.294-.794.294h-5.804c-1.406 0-3.178-1.234-3.789-2.615l-5.04-11.079c-.611-1.352-.49-2.821.336-4.026.824-1.205 2.169-1.91 3.696-1.91h.825v-.059zm0-1.47h-.855c-4.277 0-7.18 4.232-5.438 8.023l5.04 11.08c.825 1.939 3.178 3.526 5.195 3.526h5.804c2.016 0 2.993-1.587 2.138-3.527l-6.72-15.575c-.795-1.94-3.147-3.527-5.164-3.527z" fill="#230545"/><path d="M40.937 43.345h17.444c0-.47-.397-.881-.916-.881H40.02l.917.881z" fill="#9C452D"/><path d="M56.395 48.341l1.956-4.673c.03-.117.06-.205.06-.322H40.877c-.4.001-.76.232-.917.587l-1.832 4.408h18.268z" fill="#230545"/><path d="M56.884 61.565c1.62 0 2.78-1.469 2.353-2.968l-.092-.264-2.78-9.992h-18.33l2.78 9.992.397 1.498c.275 1.029 1.253 1.734 2.352 1.734h13.32z" fill="#9C452D"/><path d="M46.1 58.597L43.26 48.341h-5.132l1.832-4.408c.157-.355.518-.586.917-.588h.061l-.916-.881h-.062c-.399.001-.76.232-.916.588l-1.803 4.32c-.244.617-.305 1.322-.122 1.968l2.902 10.491c.276 1.029 1.253 1.734 2.353 1.734h1.344c1.62 0 2.78-1.469 2.383-2.968z" fill="#B37624"/><path d="M42.373 60.684c-.703 0-1.283-.44-1.466-1.088l-2.872-10.344h4.522l2.657 9.61c.122.44.03.91-.275 1.264-.305.352-.733.587-1.222.587h-1.344v-.03z" fill="#9C452D"/><path d="M41.854 50.105l2.474 8.962a.58.58 0 0 1-.58.735h-1.344a.585.585 0 0 1-.581-.44l-2.566-9.257h2.597zm1.405-1.764h-6.11l-.03 1 2.901 10.49c.276 1.029 1.253 1.734 2.353 1.734h1.344c1.62 0 2.78-1.469 2.352-2.968l-2.81-10.256z" fill="#B37624"/><path d="M55.174 53.63h-.917a.768.768 0 0 1-.542-.211.718.718 0 0 1-.222-.523c0-.411.336-.735.764-.735h.917c.427 0 .763.324.763.735 0 .412-.367.735-.763.735zm-5.805 0h-.917a.768.768 0 0 1-.54-.211.718.718 0 0 1-.223-.523c0-.411.336-.735.763-.735h.917c.428 0 .764.324.764.735 0 .412-.367.735-.764.735z" fill="#E5E8DF"/><path d="M55.723 43.022l-3.605-3.468c-.367-.352-.946-.352-1.283 0l-6.048 5.82c-.367.352-.367.91 0 1.234l1.802 1.733h4.888l4.246-4.084a.978.978 0 0 0 .275-.588.71.71 0 0 0-.275-.647z" fill="#E37151"/><path d="M51.507 48.341l4.247-4.085a.975.975 0 0 0 .275-.588l-6.14.735-.52 3.909h2.138v.03z" fill="#DE5833"/><path d="M68.463 4.849a1.978 1.978 0 0 0-1.375-.55c-.515 0-1.01.197-1.375.55L39.44 30.122a4.148 4.148 0 0 0-1.222 2.938c0 1.088.397 2.175 1.222 2.939.092.088.183.176.275.235.03.03.061.03.061.059.092.059.183.147.275.206.092.058.214.117.306.176.03 0 .03.03.06.03.093.058.215.117.337.146.122.059.244.088.366.117h.061c.245.06.49.118.734.148h.03c.122 0 .245.029.397.029a4.75 4.75 0 0 1-.763-.588 4.149 4.149 0 0 1-1.222-2.939c0-1.087.428-2.145 1.222-2.938L68.462 4.849z" fill="#97A090"/><path d="M69.38 7.788a8.392 8.392 0 0 0-.245-.823l-.672-2.116-8.554 8.228-18.33 17.632a4.148 4.148 0 0 0-1.222 2.939c0 1.087.397 2.174 1.222 2.939.39.381.948.557 1.497.47h.091c.214-.03.428-.06.611-.118l12.25-4.378c8.34-2.969 13.657-10.403 14.054-18.485.06-.94-.03-1.91-.153-2.85l-.55-3.439z" fill="#E5E8DF"/><path d="M44.023 33.648c0-1.087.427-2.145 1.221-2.939l18.331-17.632 5.743-5.524a13.454 13.454 0 0 0-.183-.588l-.672-2.116-8.554 8.228-18.33 17.632a4.148 4.148 0 0 0-1.222 2.939c0 1.087.397 2.174 1.222 2.939.39.381.948.557 1.497.47h.091c.214-.03.428-.06.611-.118l1.344-.47c-.733-.764-1.1-1.793-1.1-2.821zM62.72 19.807c.61-.882 1.13-1.822 1.466-2.94l-.123-.116-1.16 1.057-1.13 1.088-2.292 2.145-2.23 2.204-1.13 1.087-1.1 1.117.122.118c1.16-.324 2.139-.823 3.055-1.41a15.89 15.89 0 0 0 2.474-1.97 14.276 14.276 0 0 0 2.047-2.38zm1.19 2.939l-.763.705-1.527 1.44-1.498 1.469-.732.735-.734.734.092.089c.825-.177 1.466-.5 2.108-.882.61-.382 1.16-.823 1.68-1.293.489-.47.947-1.029 1.344-1.616.397-.588.733-1.235.917-2.028l-.092-.088-.794.734z" fill="#CDD6C5"/><path d="M78.82 28.652l-3.758 1.205a54.315 54.315 0 0 1-16.68 2.615l4.276 4.115 4.43 4.26 9.134-8.786c1.04-1 1.894-2.146 2.597-3.409z" fill="#97A090"/><path d="M82.821 27.388l-4.002 1.293a14.182 14.182 0 0 1-2.597 3.41l-9.134 8.756.855.824a5.65 5.65 0 0 0 2.17 1.292l8.706-8.375a14.228 14.228 0 0 0 4.002-7.2z" fill="#544463"/><path d="M80.255 34.823l.55-.352c2.72-1.763 4.4-4.673 4.43-7.817v-.059l-3.055.97c-.642 2.468-1.986 4.73-3.88 6.553l-8.89 8.552c2.047.94 4.552.617 6.263-1.029l5.224-5.025c.183-.176.397-.382.55-.588l-1.192-1.205z" fill="#230545"/><path d="M82.668 11.608h-7.637c-.244 0-.458-.206-.458-.441 0-.235.214-.44.458-.44h7.637c.245 0 .459.205.459.44 0 .235-.214.44-.459.44zM72.281 56.863h-7.637c-.244 0-.458-.205-.458-.44 0-.236.214-.441.458-.441h7.638a.46.46 0 0 1 .457.44.46.46 0 0 1-.457.441zM35.316 17.191h-7.638c-.244 0-.458-.206-.458-.44 0-.235.214-.441.458-.441h7.638c.244 0 .458.206.458.44 0 .235-.214.441-.458.441zm-7.943 2.057h-2.445a.46.46 0 0 1-.457-.44.46.46 0 0 1 .457-.441h2.445c.244 0 .458.205.458.44 0 .236-.214.441-.458.441zm59.267-7.64h-1.527c-.245 0-.459-.206-.459-.441 0-.235.214-.44.459-.44h1.527c.244 0 .458.205.458.44 0 .235-.214.44-.458.44zm5.5 18.514h-3.362c-.244 0-.458-.207-.458-.441 0-.235.214-.441.458-.441h3.361c.245 0 .458.206.458.44 0 .236-.214.442-.458.442zM79.307 45.109H77.17c-.245 0-.459-.206-.459-.441 0-.235.214-.44.459-.44h2.138c.245 0 .458.205.458.44 0 .235-.213.44-.458.44zM34.094 26.3h-2.139c-.244 0-.458-.206-.458-.44 0-.236.214-.441.458-.441h2.139c.244 0 .458.205.458.44 0 .235-.214.441-.458.441zm-15.58 19.395h-2.139c-.244 0-.458-.205-.458-.44 0-.235.214-.441.458-.441h2.138c.245 0 .458.206.458.44 0 .236-.213.441-.458.441zm-2.139-2.35h-3.36c-.245 0-.459-.206-.459-.441 0-.235.214-.441.458-.441h3.361c.244 0 .458.206.458.44 0 .236-.214.441-.458.441zm72.098-9.992h-.916c-.245 0-.459-.206-.459-.44 0-.236.214-.442.459-.442h.916c.244 0 .458.206.458.441 0 .235-.214.44-.458.44z" fill="#DDEBF7"/><path d="M17.292 23.362h-1.834a1.816 1.816 0 0 0-1.71 1.176h.489c.274 0 .519.147.61.382a.61.61 0 0 1-.58.793h-.489c.256.703.94 1.174 1.71 1.176h1.773c.855 0 1.65-.558 1.833-1.352.244-1.146-.672-2.175-1.803-2.175z" fill="#230545"/><path d="M14.206 24.538h-.489a1.83 1.83 0 0 0-.122.588c0 .205.03.411.122.587h.489a.61.61 0 0 0 .58-.793c-.061-.235-.305-.382-.58-.382zM17.444 25.713h-.611a.601.601 0 0 1-.61-.587c0-.324.274-.588.61-.588h.611c.336 0 .611.264.611.588a.601.601 0 0 1-.61.587z" fill="#FFF"/><g fill="#7F8C76"><path d="M66.69 34.53l-.55.529a.759.759 0 0 1-1.068 0L66.69 33.5a.692.692 0 0 1 0 1.028zm-31.466-.294l-.55.528a.758.758 0 0 1-1.069 0l1.62-1.557a.693.693 0 0 1 0 1.029zm-2.444 2.35l-.855.53a.758.758 0 0 1-1.07 0l1.62-1.558c.305.294.61.735.305 1.028zm36.355 0l-.55.53a.758.758 0 0 1-1.07 0l1.62-1.558a.691.691 0 0 1 0 1.028zm2.444-2.938l-.55.529a.758.758 0 0 1-1.07 0l1.62-1.558a.693.693 0 0 1 0 1.029z"/></g></g><path d="M230.177 28.179l-5.533 5.504a1.21 1.21 0 0 1-1.724 0l-9.163-9.113a1.194 1.194 0 0 1 0-1.715l5.534-5.504c.242-.24.574-.36.907-.36.302 0 .575.12.787.36l9.162 9.113c.211.21.333.512.363.782.03.331-.06.662-.333.933z" fill="#94A389"/><path d="M221.378 26.103l-1.15-9.113c.303 0 .575.12.787.361l9.162 9.113c.212.211.333.512.364.782l-9.163-1.143z" fill="#7F8C76"/><path d="M230.752 22.645h-1.512a.464.464 0 0 1-.454-.451c0-.241.212-.451.454-.451h1.512c.242 0 .454.21.454.45 0 .271-.213.452-.454.452zm7.257-2.707h-9.374a.464.464 0 0 1-.454-.452c0-.24.212-.45.454-.45h9.374c.242 0 .454.21.454.45 0 .271-.212.451-.454.451z" fill="#DDEBF7"/><path d="M200.09 62.707c.15-.18.332-.33.544-.45l11.279-4.663c.302-.12.635-.12.937-.03.333.12.635.361.787.722l2.781 6.677c.272.662-.03 1.444-.695 1.714l-11.28 4.662c-.664.271-1.45-.03-1.723-.691l-2.782-6.678c-.212-.42-.12-.902.151-1.263z" fill="#E37151"/><path d="M200.09 62.707c.15-.18.332-.33.544-.45l11.279-4.663c.302-.12.635-.12.937-.03l-4.384 7.64-8.377-2.497z" fill="#DE5833"/><path d="M220.168 60.842h-2.116a.464.464 0 0 1-.454-.45c0-.241.212-.452.454-.452h2.116c.242 0 .454.21.454.451 0 .27-.212.451-.454.451zm8.467 3.008h-9.374a.464.464 0 0 1-.454-.451c0-.24.212-.451.454-.451h9.374c.242 0 .454.21.454.45 0 .272-.212.452-.454.452z" fill="#DDEBF7"/><g><path d="M185.998 41.593h-4.536a.464.464 0 0 1-.453-.451c0-.24.211-.451.453-.451h4.536c.242 0 .453.21.453.45 0 .272-.21.452-.453.452zM183.578 44h-1.51a.464.464 0 0 1-.455-.452c0-.24.212-.451.454-.451h1.512c.242 0 .453.21.453.451 0 .27-.211.451-.453.451z" fill="#DDEBF7"/><path d="M160.779 54.165c.242.602.967.903 1.572.662l16.753-6.918c.604-.24.907-.962.665-1.564l-3.931-9.444c-.242-.601-.968-.902-1.573-.662l-16.752 6.918c-.605.241-.907.963-.665 1.564l3.93 9.444z" fill="#FFC680"/><path d="M173.903 39.307l.21.542-.21-.542z" fill="#B37624"/><path d="M174.205 38.225c-.03 0-.091 0-.121.03l-1.119.451c-.15.06-.242.24-.15.39l.694 1.655c.06.12.151.18.272.18.03 0 .09 0 .122-.03l1.118-.45c.151-.06.242-.241.151-.392l-.695-1.654c-.03-.12-.15-.18-.272-.18z" fill="#DE5833"/><path d="M162.321 43.759l-3.629 1.504c-.15.06-.333 0-.393-.151l-.12-.27c-.061-.15 0-.331.15-.391l3.629-1.505c.15-.06.332 0 .393.151l.121.27c.09.151 0 .301-.15.392zm-1.27 2.466l-1.663.692c-.151.06-.333 0-.393-.15l-.122-.271c-.06-.15 0-.33.152-.391l1.663-.692c.15-.06.333 0 .393.15l.12.27c.092.151 0 .332-.15.392zm11.31 1.203l-5.595 2.316c-.151.06-.333 0-.393-.15l-.121-.271c-.06-.15 0-.33.151-.391l5.594-2.316c.151-.06.333 0 .394.15l.12.27c.091.151 0 .332-.15.392zm.423-2.135l-7.832 3.218c-.152.06-.333 0-.393-.15l-.242-.542c-.06-.15 0-.33.15-.39l7.833-3.22c.15-.06.332 0 .393.151l.242.542c.09.15 0 .33-.151.39z" fill="#CC8729"/></g><g><path d="M125.43 20.87c.241.18.423.391.543.692l5.776 13.896c.151.39.151.781.03 1.142-.15.421-.453.782-.907.963l-8.316 3.428c-.815.332-1.784-.06-2.116-.872l-5.776-13.925c-.332-.813.06-1.775.877-2.106l8.316-3.429a1.632 1.632 0 0 1 1.572.211z" fill="#60A5DA"/><path d="M125.43 20.87c.241.18.423.391.543.692l5.776 13.896c.151.39.151.781.03 1.142l-9.525-5.383 3.175-10.347z" fill="#7CB5E0"/><path d="M135.499 26.855h-3.326a.464.464 0 0 1-.454-.45c0-.241.212-.452.454-.452h3.326c.242 0 .453.21.453.451 0 .27-.211.451-.453.451zm-1.512 2.106h-1.512a.464.464 0 0 1-.454-.452c0-.24.212-.45.454-.45h1.512c.242 0 .453.21.453.45 0 .271-.211.452-.453.452z" fill="#DDEBF7"/></g></g></svg>