<svg width="613" height="92" xmlns="http://www.w3.org/2000/svg"><g fill-rule="nonzero" fill="none"><g transform="translate(.13 .753)"><path d="M88.118 74.799H81.96a.63.63 0 0 1-.616-.612.63.63 0 0 1 .616-.61h6.159a.63.63 0 0 1 .616.61.63.63 0 0 1-.616.612zM83.602 1.427h-4.516a.63.63 0 0 1-.617-.612.63.63 0 0 1 .617-.611h4.516a.63.63 0 0 1 .616.611.63.63 0 0 1-.616.612zm5.338 0h-2.053a.63.63 0 0 1-.616-.612.63.63 0 0 1 .616-.611h2.053a.63.63 0 0 1 .616.611.63.63 0 0 1-.616.612z" fill="#DDEBF7"/><path fill="#9C452D" d="M13.838 44.227l-1.068 1.63h6.16v-1.63z"/><path d="M50.711 49.69c-.287-1.468-.04-3.058.821-4.321L77.648 6.604l-.246-.49-1.93-3.587c-.41-.774-1.479-.856-1.971-.163L44.593 45.328c-.862 1.263-1.108 2.853-.82 4.32.286 1.468 1.107 2.854 2.38 3.67.124.08.289.162.411.243.042 0 .083.041.124.041.123.082.287.122.41.204.164.081.329.122.452.163.04 0 .082 0 .082.041.164.041.328.081.452.122.164.041.328.041.493.082h.081c.341.04.686.04 1.027 0h.04c.165 0 .33-.04.494-.082a6.15 6.15 0 0 1-.903-.448 2.42 2.42 0 0 0 1.847.122l.124-.04c.286-.082.533-.205.78-.327l.657-.407c-1.027-.775-1.725-2.039-2.013-3.343z" fill="#544463"/><path d="M77.648 6.563L51.532 45.328c-.862 1.263-1.107 2.853-.82 4.32a5.738 5.738 0 0 0 2.053 3.424l14.33-8.764C80.071 36.401 84.63 19.933 77.648 6.563z" fill="#230545"/><path d="M83.808 45.042L65.822 62.896c-.041.04-.082.04-.082.082-3.531 3.628-8.377 5.625-13.386 6.033a24.3 24.3 0 0 0 1.725.08h3.86c5.666 0 11.25-2.037 15.192-6.113.041-.041.082-.041.082-.082L91.2 45.042h-7.391z" fill="#CDD6C5"/><path d="M21.393 40.6v12.147c0 1.1.698 2.12 1.807 2.364 1.273.326 2.464-.408 2.874-1.55 0 0 2.628-7.704 3.984-11.739L21.393 40.6z" fill="#230545"/><path d="M43.567 50.75h.082-.082z" fill="#A09AA6"/><path d="M37.202 38.317l-.205-.204-2.012 1.997c.944 1.753.944 3.954-1.273 6.155l-2.259 2.242c-1.93 1.916-1.93 5.013 0 6.97l7.597 7.541v-7.744c0-1.019.164-1.997.452-2.935l1.6.897c.125-.163.699-4.769.822-4.892l4.435-4.402a23.406 23.406 0 0 1-9.157-5.625z" fill="#230545"/><path d="M33.712 46.265c3.08-3.057 1.807-6.155-.164-7.948l-2.054-2.039c-1.231-1.141-2.997-1.549-4.64-1.263-1.19.204-2.299.57-3.366 1.1-1.109.571-2.177 1.304-3.08 2.202l-1.437 1.426v6.115h.616c1.93 0 2.587.326 4.311 2.038l6.775 6.726 3.039-8.356v-.001z" fill="#97A090"/><path d="M24.268 38.928h-.821a2.847 2.847 0 0 0-2.875 2.853c0 1.59 1.273 2.854 2.875 2.854h.82a2.846 2.846 0 0 0 2.875-2.854c0-1.59-1.314-2.853-2.874-2.853z" fill="#E5E8DF"/><path d="M31.248 55.233c-.205 0-.452 0-.657-.081a2.449 2.449 0 0 1-1.806-2.365V40.641c0-2.242-1.849-4.076-4.107-4.076h-1.231l-3.696-2.487c0-2.079 1.601-3.872 3.696-4.035.164 0 .37-.041.533-.041h9.321c3.162 0 5.749 2.568 5.749 5.706v1.224c0 1.67-.287 3.382-.821 4.972-1.356 4.076-3.984 11.74-3.984 11.74a2.425 2.425 0 0 1-2.176 1.63h-.82v-.041z" fill="#9C452D"/><path d="M25.5 32.04c.164 0 .369-.041.533-.041h9.321c1.068 0 2.054.285 2.916.774A5.753 5.753 0 0 0 33.3 29.96h-9.32c-.165 0-.33 0-.534.041-2.095.163-3.696 1.957-3.696 4.035l2.094 1.427a4.045 4.045 0 0 1 3.654-3.424z" fill="#B37624"/><path d="M40.528 41.047c-.082.286-.164.53-.246.816-.041.082-.041.122-.082.204-.74 2.16.41 4.565 2.628 5.298h.04l3.491-3.464c-2.053-.693-4.024-1.63-5.83-2.854z" fill="#544463"/><path d="M20.45 48.507a2.026 2.026 0 0 0-.412-.774L9.24 37.012c-.288-.286-.698-.449-1.068-.49a1.459 1.459 0 0 0-1.232.49l-6.446 6.4a1.616 1.616 0 0 0 0 2.324l10.8 10.72a1.644 1.644 0 0 0 2.34 0l6.447-6.4c.37-.407.493-1.02.37-1.549z" fill="#F1A031"/><path d="M20.45 48.507a2.026 2.026 0 0 0-.412-.774L9.24 37.012c-.288-.286-.698-.449-1.068-.49l1.356 10.925 10.922 1.06z" fill="#FFC680"/><ellipse fill="#230545" cx="23.036" cy="41.781" rx="1.232" ry="1.223"/><path d="M52.313 69.01c5.05-.407 9.896-2.404 13.386-6.032.041-.041.082-.041.082-.082l15.727-15.612-14.372 2.446-2.668 3.465H42.746l-3.696 3.668v6.115c3.572 3.505 8.294 5.625 13.263 6.033z" fill="#CDD6C5"/><path d="M55.187 66.157c5.051-.407 9.896-2.405 13.386-6.033.041-.04.082-.04.082-.081l8.952-8.887c2.094-2.078.246-5.624-2.669-5.135l-4.927.855-2.67 3.466H45.62l-3.695 3.668v6.114c3.571 3.506 8.293 5.626 13.263 6.033h-.001z" fill="#E5E8DF"/><path d="M39.871 34.444c0-.693-.534-1.223-1.232-1.223H22.214v3.261H38.64c.698 0 1.232-.53 1.232-1.222v-.816z" fill="#230545"/><path d="M33.301 44.227a2.846 2.846 0 0 1-2.874-2.853A2.846 2.846 0 0 1 33.3 38.52c1.56 0 2.874 1.263 2.874 2.853 0 1.59-1.313 2.853-2.874 2.853z" fill="#B37624"/><path d="M33.301 43.004a1.641 1.641 0 0 1-1.642-1.63 1.641 1.641 0 0 1 1.642-1.608c.895 0 1.625.715 1.643 1.608a1.641 1.641 0 0 1-1.643 1.63z" fill="#230545"/><path d="M16.548 40.681c-.41.325-.78.693-1.108 1.1-.083.123-.165.204-.247.326l-1.396 2.12h5.092v-4.443c-.821.04-1.643.367-2.341.897z" fill="#DE5833"/><path fill="#7F8C76" d="M78.059 45.042v5.3l.082.081 11.21-3.954 1.437-1.427z"/><path d="M78.47 50.341v-5.299H53.831s-4.517-.407-5.215-.53a20.422 20.422 0 0 1-2.258-.61 3.602 3.602 0 0 0-.616-.205L41.308 48.1c-1.847 1.835-2.669 4.322-2.669 6.93v7.338l.41.61a21.042 21.042 0 0 0 3.696 2.895V57.19c0-2.242 1.93-3.995 4.147-3.995h17.576c4.07 0 8.11-.69 11.948-2.039l2.094-.733-.04-.082z" fill="#97A090"/><path d="M54.079 45.042c-.411.857-.657 1.794-.657 2.772 0 1.672.657 3.383 2.011 4.607a3.136 3.136 0 0 0 2.464.733l.165-.04a9.14 9.14 0 0 0 1.026-.205l20.244-6.848c.944-.326 1.847-.652 2.75-1.06H54.08v.041z" fill="#7F8C76"/><path d="M57.938 45.858c1.89 0 4.27 1.711 5.092 3.628l9.034 21.603c.287.694.328 1.346.082 1.672-.247.326-.78.407-1.068.407h-7.802c-1.888 0-4.27-1.712-5.091-3.627L51.41 54.173c-.822-1.875-.658-3.913.451-5.584 1.109-1.672 2.915-2.65 4.969-2.65h1.108v-.081zm0-2.039h-1.15c-5.748 0-9.649 5.87-7.308 11.129l6.775 15.367c1.108 2.69 4.27 4.892 6.98 4.892h7.802c2.71 0 4.024-2.202 2.874-4.892L64.878 48.71c-1.068-2.69-4.23-4.891-6.94-4.891z" fill="#230545"/><path d="M55.023 60.124h23.446a1.23 1.23 0 0 0-1.232-1.222H53.791l1.232 1.222z" fill="#9C452D"/><path d="M75.8 67.054l2.628-6.482c.041-.163.082-.285.082-.447H54.94a1.345 1.345 0 0 0-1.231.814l-2.463 6.115H75.8z" fill="#230545"/><path d="M76.457 85.397c2.176 0 3.737-2.038 3.162-4.117l-.123-.367-3.737-13.859H51.122l3.737 13.86.533 2.078c.37 1.427 1.684 2.405 3.162 2.405h17.903z" fill="#9C452D"/><path d="M61.963 81.28l-3.82-14.227h-6.897l2.463-6.114c.21-.493.695-.813 1.232-.815h.082l-1.232-1.222h-.082a1.345 1.345 0 0 0-1.232.815l-2.423 5.992c-.328.856-.41 1.834-.164 2.73l3.9 14.553c.37 1.427 1.685 2.405 3.163 2.405h1.806a3.296 3.296 0 0 0 3.204-4.117z" fill="#B37624"/><path d="M56.953 84.174a2.02 2.02 0 0 1-1.971-1.508l-3.86-14.348H57.2l3.572 13.329a1.93 1.93 0 0 1-.37 1.753c-.41.49-.986.815-1.642.815h-1.807v-.04z" fill="#9C452D"/><path d="M56.255 69.5l3.326 12.432a.85.85 0 0 1-.123.693.774.774 0 0 1-.657.326h-1.807a.79.79 0 0 1-.78-.611l-3.45-12.84h3.491zm1.889-2.446H49.93l-.04 1.386 3.9 14.552c.37 1.427 1.684 2.405 3.162 2.405h1.806c2.177 0 3.737-2.038 3.162-4.117l-3.777-14.226z" fill="#B37624"/><path d="M74.158 74.391h-1.232a1.015 1.015 0 0 1-1.027-1.019c0-.57.452-1.02 1.027-1.02h1.232c.574 0 1.027.45 1.027 1.02 0 .571-.493 1.02-1.027 1.02zm-7.802 0h-1.232a1.015 1.015 0 0 1-1.026-1.019c0-.57.451-1.02 1.026-1.02h1.232c.575 0 1.027.45 1.027 1.02 0 .571-.493 1.02-1.027 1.02z" fill="#E5E8DF"/><path d="M74.897 59.676l-4.845-4.81c-.494-.489-1.273-.489-1.725 0l-8.13 8.07c-.493.49-.493 1.264 0 1.713l2.422 2.404h6.57l5.708-5.665c.205-.204.329-.489.37-.815.04-.326-.082-.652-.37-.897z" fill="#E37151"/><path d="M69.23 67.054l5.708-5.666c.205-.204.329-.49.37-.816l-8.254 1.02-.698 5.421h2.874v.041z" fill="#DE5833"/><path d="M92.02 6.726a2.615 2.615 0 0 0-3.695 0L53.01 41.78a5.849 5.849 0 0 0-1.642 4.077c0 1.508.533 3.016 1.642 4.076.123.122.246.244.37.326.04.041.082.041.082.081.123.082.246.204.37.286.122.081.287.162.41.244.04 0 .04.041.082.041.123.081.287.163.451.204.165.081.329.122.493.163h.082c.329.081.658.163.986.204h.041c.164 0 .329.04.534.04a6.414 6.414 0 0 1-1.026-.815 5.849 5.849 0 0 1-1.643-4.076c0-1.508.575-2.976 1.643-4.076l36.133-35.83z" fill="#97A090"/><path d="M93.252 10.802c-.091-.385-.2-.766-.329-1.141l-.903-2.935-11.497 11.413-24.638 24.458a5.849 5.849 0 0 0-1.642 4.076c0 1.508.533 3.016 1.643 4.076a2.31 2.31 0 0 0 2.011.652h.124c.287-.04.574-.081.82-.163l16.467-6.073a28.801 28.801 0 0 0 18.888-25.64c.082-1.304-.04-2.65-.205-3.953l-.74-4.77z" fill="#E5E8DF"/><path d="M59.17 46.673c0-1.508.575-2.976 1.642-4.076L85.45 18.139l7.72-7.663a19.102 19.102 0 0 0-.247-.815l-.903-2.935-11.497 11.413-24.638 24.458a5.849 5.849 0 0 0-1.642 4.076c0 1.508.533 3.016 1.643 4.076a2.31 2.31 0 0 0 2.011.652h.124c.287-.04.574-.081.82-.163l1.807-.652c-.985-1.06-1.478-2.487-1.478-3.913zM84.3 27.474c.821-1.223 1.52-2.527 1.971-4.077l-.164-.162-1.56 1.467-1.52 1.509-3.08 2.975-2.997 3.057-1.52 1.508-1.478 1.55.165.162c1.56-.448 2.874-1.14 4.106-1.956a21.484 21.484 0 0 0 3.326-2.732 19.644 19.644 0 0 0 2.751-3.3zm1.602 4.076l-1.027.979-2.053 1.996-2.012 2.039-.985 1.02-.987 1.018.124.122c1.109-.244 1.971-.693 2.833-1.223.821-.53 1.561-1.141 2.258-1.793a13.99 13.99 0 0 0 1.808-2.242c.533-.815.985-1.712 1.231-2.813l-.123-.122-1.067 1.019z" fill="#CDD6C5"/><path d="M105.94 39.743l-5.05 1.671a70.932 70.932 0 0 1-22.42 3.628l5.748 5.707 5.954 5.91 12.278-12.187c1.396-1.386 2.545-2.976 3.49-4.729z" fill="#97A090"/><path d="M111.319 37.99l-5.38 1.794a19.62 19.62 0 0 1-3.49 4.728L90.173 56.66l1.15 1.142a7.55 7.55 0 0 0 2.915 1.793l11.703-11.617a19.914 19.914 0 0 0 5.379-9.987z" fill="#544463"/><path d="M107.87 48.303l.739-.489c3.655-2.445 5.913-6.48 5.954-10.843v-.081l-4.107 1.345c-.862 3.424-2.668 6.563-5.214 9.09l-11.95 11.862c2.752 1.304 6.12.856 8.418-1.427l7.022-6.97c.246-.245.534-.53.74-.816l-1.602-1.67z" fill="#230545"/><path d="M111.113 16.1h-10.265a.63.63 0 0 1-.616-.61.63.63 0 0 1 .616-.612h10.265a.63.63 0 0 1 .617.612.63.63 0 0 1-.617.61zm-13.96 62.775H86.886a.63.63 0 0 1-.616-.611.63.63 0 0 1 .616-.612h10.266c.328 0 .615.285.615.612a.629.629 0 0 1-.615.61zM47.467 23.846H37.202a.63.63 0 0 1-.615-.611.63.63 0 0 1 .615-.612h10.266a.63.63 0 0 1 .616.611.63.63 0 0 1-.616.612zM36.79 26.7h-3.285a.629.629 0 0 1-.615-.611c0-.326.287-.611.615-.611h3.285a.63.63 0 0 1 .617.61.63.63 0 0 1-.617.612zm79.66-10.598H114.4a.63.63 0 0 1-.616-.611.63.63 0 0 1 .616-.612h2.053a.63.63 0 0 1 .616.612.63.63 0 0 1-.616.61zm7.392 25.68h-4.517a.63.63 0 0 1-.616-.61.63.63 0 0 1 .616-.613h4.517a.63.63 0 0 1 .616.612.63.63 0 0 1-.616.611zM106.597 62.57h-2.874a.63.63 0 0 1-.616-.611.63.63 0 0 1 .616-.612h2.874c.329 0 .616.286.616.612a.629.629 0 0 1-.616.61zM45.825 36.482H42.95a.629.629 0 0 1-.616-.611c0-.326.287-.611.616-.611h2.874a.63.63 0 0 1 .616.61.63.63 0 0 1-.616.612zM24.884 63.385h-2.875a.63.63 0 0 1-.616-.611.63.63 0 0 1 .616-.611h2.875c.328 0 .615.285.615.61a.629.629 0 0 1-.615.612zm-2.875-3.26h-4.517a.63.63 0 0 1-.616-.612.63.63 0 0 1 .616-.611h4.517c.329 0 .616.285.616.61a.629.629 0 0 1-.616.612zm96.906-13.86h-1.231a.63.63 0 0 1-.616-.611.63.63 0 0 1 .616-.612h1.231a.63.63 0 0 1 .616.612.63.63 0 0 1-.616.611z" fill="#DDEBF7"/><path d="M23.242 32.406h-2.465a2.444 2.444 0 0 0-2.299 1.63h.657c.37 0 .698.204.821.53.164.57-.246 1.1-.78 1.1h-.657a2.444 2.444 0 0 0 2.3 1.631H23.2c1.15 0 2.217-.774 2.464-1.874.328-1.59-.903-3.017-2.423-3.017z" fill="#230545"/><path d="M19.093 34.036h-.656c-.083.245-.165.53-.165.816 0 .285.041.57.165.815h.656c.535 0 .945-.53.781-1.1-.082-.327-.41-.53-.78-.53zM23.447 35.667h-.822a.82.82 0 0 1-.821-.815.82.82 0 0 1 .82-.816h.823a.82.82 0 0 1 .82.816.82.82 0 0 1-.82.815z" fill="#FFF"/><g fill="#7F8C76"><path d="M89.638 47.896l-.739.734a.998.998 0 0 1-1.437 0l2.176-2.161a.98.98 0 0 1 0 1.427zm-42.293-.408l-.74.734a.997.997 0 0 1-1.437 0l2.177-2.161a.982.982 0 0 1 0 1.427zm-3.286 3.261l-1.15.734a.997.997 0 0 1-1.437 0l2.177-2.16c.41.407.821 1.018.41 1.426zm48.864 0l-.74.734a.997.997 0 0 1-1.436 0l2.176-2.16a.98.98 0 0 1 0 1.426zm3.285-4.076l-.74.733a.997.997 0 0 1-1.436 0l2.176-2.16a.982.982 0 0 1 0 1.427z"/></g></g><path d="M601.759 32.933l-7.515 7.46a1.644 1.644 0 0 1-2.34 0l-12.442-12.351a1.616 1.616 0 0 1 0-2.324l7.514-7.46c.329-.325.78-.489 1.232-.489.41 0 .78.164 1.068.49l12.442 12.35c.287.286.451.694.492 1.06.041.449-.082.897-.451 1.264z" fill="#94A389"/><path d="M589.81 30.12l-1.56-12.35c.41 0 .78.163 1.067.489l12.442 12.35c.287.286.451.694.493 1.06l-12.443-1.549z" fill="#7F8C76"/><path d="M602.539 25.433h-2.053a.63.63 0 0 1-.617-.611.63.63 0 0 1 .617-.612h2.053a.63.63 0 0 1 .616.612.603.603 0 0 1-.616.61zm9.854-3.668h-12.729a.63.63 0 0 1-.616-.612.63.63 0 0 1 .616-.612h12.73a.63.63 0 0 1 .615.612.602.602 0 0 1-.616.61v.002z" fill="#DDEBF7"/><path d="M560.902 79.728c.205-.244.451-.448.739-.611l15.316-6.319c.41-.163.863-.163 1.273-.04.452.163.862.49 1.068.978l3.777 9.05c.37.896-.04 1.956-.944 2.323l-15.316 6.318c-.903.367-1.971-.041-2.34-.938l-3.778-9.05c-.288-.57-.165-1.222.205-1.71z" fill="#E37151"/><path d="M560.902 79.728c.205-.244.451-.448.739-.611l15.316-6.319c.41-.163.863-.163 1.273-.04l-5.954 10.353-11.374-3.383z" fill="#DE5833"/><path d="M588.167 77.2h-2.874a.63.63 0 0 1-.616-.61.63.63 0 0 1 .616-.612h2.874c.329 0 .616.285.616.611a.602.602 0 0 1-.616.612zm11.497 4.077h-12.729a.63.63 0 0 1-.616-.611.63.63 0 0 1 .616-.612h12.73a.63.63 0 0 1 .616.612.603.603 0 0 1-.617.61z" fill="#DDEBF7"/><g><path d="M541.767 51.113h-6.16a.63.63 0 0 1-.615-.612c0-.326.287-.61.616-.61h6.16c.328 0 .615.284.615.61a.602.602 0 0 1-.616.612zm-3.285 3.261h-2.053a.63.63 0 0 1-.616-.612.63.63 0 0 1 .616-.61h2.053a.63.63 0 0 1 .616.61.602.602 0 0 1-.616.612z" fill="#DDEBF7"/><path d="M507.522 68.152c.328.815 1.313 1.223 2.135.897l22.748-9.376c.821-.326 1.232-1.304.903-2.12l-5.338-12.799c-.328-.815-1.314-1.223-2.135-.897l-22.748 9.376c-.822.326-1.232 1.304-.904 2.12l5.339 12.799z" fill="#FFC680"/><path d="M525.343 48.015l.286.734-.286-.734z" fill="#B37624"/><path d="M525.753 46.548c-.041 0-.124 0-.165.04l-1.519.612c-.205.081-.328.326-.205.53l.944 2.242c.082.163.205.244.37.244.04 0 .123 0 .165-.04l1.519-.612c.205-.081.328-.326.205-.53l-.944-2.242c-.041-.163-.205-.244-.37-.244z" fill="#DE5833"/><path d="M509.616 54.048l-4.928 2.038c-.205.082-.452 0-.534-.204l-.164-.367c-.082-.203 0-.448.205-.53l4.928-2.038c.205-.081.451 0 .534.204l.164.367c.123.204 0 .407-.205.53zm-1.725 3.342l-2.259.938c-.205.082-.451 0-.533-.204l-.165-.367c-.082-.204 0-.448.206-.53l2.258-.937c.205-.082.452 0 .534.204l.164.366c.124.204 0 .45-.205.53zm15.357 1.63l-7.597 3.14c-.205.081-.451 0-.533-.204l-.165-.367c-.082-.204 0-.448.206-.53l7.596-3.139c.205-.081.452 0 .534.204l.164.367c.124.204 0 .449-.205.53zm.575-2.893l-10.635 4.361c-.205.082-.452 0-.534-.204l-.328-.733c-.082-.204 0-.448.204-.53l10.636-4.361c.205-.082.452 0 .534.203l.328.734c.123.204 0 .448-.205.53z" fill="#CC8729"/></g><g><path d="M459.52 23.028c.328.244.575.53.739.937l7.843 18.833c.205.53.205 1.06.04 1.548-.204.57-.615 1.06-1.23 1.305l-11.293 4.646c-1.108.45-2.423-.08-2.874-1.181l-7.843-18.873c-.452-1.101.082-2.405 1.191-2.854l11.292-4.647a2.22 2.22 0 0 1 2.135.286z" fill="#60A5DA"/><path d="M459.52 23.028c.328.244.575.53.739.937l7.843 18.833c.205.53.205 1.06.04 1.548l-12.934-7.296 4.312-14.022z" fill="#7CB5E0"/><path d="M473.193 31.14h-4.516a.63.63 0 0 1-.616-.612.63.63 0 0 1 .616-.612h4.516a.63.63 0 0 1 .616.612.603.603 0 0 1-.616.612zm-2.052 2.853h-2.054a.63.63 0 0 1-.616-.612.63.63 0 0 1 .616-.611h2.054c.328 0 .615.285.615.611a.602.602 0 0 1-.615.612z" fill="#DDEBF7"/></g></g></svg>